<svg width="63" height="63" viewBox="0 0 63 63" fill="none" xmlns="http://www.w3.org/2000/svg">
<path d="M40.005 58.4587H39.6637C28.0087 58.4587 22.3912 53.865 21.42 43.575C21.315 42.4987 22.1025 41.5275 23.205 41.4225C24.2812 41.3175 25.2525 42.1312 25.3575 43.2075C26.1187 51.45 30.0037 54.5212 39.69 54.5212H40.0312C50.715 54.5212 54.495 50.7412 54.495 40.0575V22.9425C54.495 12.2587 50.715 8.47874 40.0312 8.47874H39.69C29.9512 8.47874 26.0662 11.6025 25.3575 20.0025C25.2262 21.0787 24.3337 21.8925 23.205 21.7875C22.1025 21.7087 21.315 20.7375 21.3937 19.6612C22.2862 9.21374 27.93 4.54124 39.6637 4.54124H40.005C52.8937 4.54124 58.4062 10.0537 58.4062 22.9425V40.0575C58.4062 52.9462 52.8937 58.4587 40.005 58.4587Z" fill="black"/>
<path d="M39.06 33.4688H5.25C4.17375 33.4688 3.28125 32.5762 3.28125 31.5C3.28125 30.4238 4.17375 29.5312 5.25 29.5312H39.06C40.1363 29.5312 41.0288 30.4238 41.0288 31.5C41.0288 32.5762 40.1625 33.4688 39.06 33.4688Z" fill="black"/>
<path d="M33.2063 42.2625C32.7075 42.2625 32.2088 42.0788 31.815 41.685C31.0538 40.9238 31.0538 39.6638 31.815 38.9025L39.2175 31.5L31.815 24.0975C31.0538 23.3363 31.0538 22.0763 31.815 21.315C32.5763 20.5538 33.8363 20.5538 34.5975 21.315L43.3913 30.1088C44.1525 30.87 44.1525 32.13 43.3913 32.8913L34.5975 41.685C34.2038 42.0788 33.705 42.2625 33.2063 42.2625Z" fill="black"/>
</svg>
