<svg width="100" height="36" viewBox="0 0 100 36" fill="none" xmlns="http://www.w3.org/2000/svg">
<path d="M0.411063 33.12L4.20306 32.64V3.936L0.603063 3.264V0.335999H7.56306C8.17106 0.335999 8.84306 0.319999 9.57906 0.287999C10.3151 0.255998 10.8751 0.223997 11.2591 0.191998C12.9231 0.0639973 14.2991 -2.86102e-06 15.3871 -2.86102e-06C18.6831 -2.86102e-06 21.3231 0.335998 23.3071 1.008C25.2911 1.68 26.7311 2.704 27.6271 4.08C28.5231 5.456 28.9711 7.264 28.9711 9.504C28.9711 11.712 28.3791 13.76 27.1951 15.648C26.0111 17.536 24.2991 18.832 22.0591 19.536C23.3391 20.08 24.4751 21.072 25.4671 22.512C26.4591 23.952 27.5151 25.824 28.6351 28.128C29.4351 29.696 30.0431 30.832 30.4591 31.536C30.9071 32.208 31.3391 32.592 31.7551 32.688L33.3391 33.168V36H25.1791C24.6671 36 24.1231 35.488 23.5471 34.464C23.0031 33.408 22.2831 31.76 21.3871 29.52C20.3311 26.896 19.4191 24.848 18.6511 23.376C17.8831 21.904 17.0671 20.992 16.2031 20.64H11.2591V32.64L15.6751 33.12V36H0.411063V33.12ZM15.6751 17.712C17.4991 17.712 18.9231 17.056 19.9471 15.744C20.9711 14.432 21.4831 12.464 21.4831 9.84C21.4831 7.504 20.9711 5.776 19.9471 4.656C18.9551 3.536 17.2271 2.976 14.7631 2.976C13.8671 2.976 13.0991 3.024 12.4591 3.12C11.8511 3.184 11.4511 3.216 11.2591 3.216V17.616C11.6431 17.68 12.5711 17.712 14.0431 17.712H15.6751ZM38.8448 3.936L35.2448 3.312V0.335999H42.4928C43.1648 0.335999 44.2048 0.303998 45.6128 0.239997C47.4688 0.111999 49.1488 0.0479994 50.6528 0.0479994C53.9808 0.0479994 56.6048 0.463999 58.5248 1.296C60.4768 2.096 61.8528 3.264 62.6528 4.8C63.4848 6.304 63.9008 8.224 63.9008 10.56C63.9008 14.592 62.6368 17.728 60.1088 19.968C57.6128 22.208 54.1408 23.328 49.6928 23.328C47.9328 23.328 46.6688 23.28 45.9008 23.184V32.64L52.3328 33.12V36H35.0528V33.12L38.8448 32.64V3.936ZM45.8528 20.112C46.5888 20.272 47.8368 20.352 49.5968 20.352C51.7408 20.352 53.4528 19.616 54.7328 18.144C56.0448 16.64 56.7008 14.16 56.7008 10.704C56.7008 8.016 56.1088 6.064 54.9248 4.848C53.7728 3.6 51.9968 2.976 49.5968 2.976C48.7008 2.976 47.7728 3.04 46.8128 3.168C46.3648 3.232 46.0448 3.264 45.8528 3.264V20.112ZM66.7392 33.12L70.5312 32.64V3.936L66.9312 3.264V0.335999H73.8912C74.4992 0.335999 75.1712 0.319999 75.9072 0.287999C76.6432 0.255998 77.2032 0.223997 77.5872 0.191998C79.2512 0.0639973 80.6272 -2.86102e-06 81.7152 -2.86102e-06C85.0112 -2.86102e-06 87.6512 0.335998 89.6352 1.008C91.6192 1.68 93.0592 2.704 93.9552 4.08C94.8512 5.456 95.2992 7.264 95.2992 9.504C95.2992 11.712 94.7072 13.76 93.5232 15.648C92.3392 17.536 90.6272 18.832 88.3872 19.536C89.6672 20.08 90.8032 21.072 91.7952 22.512C92.7872 23.952 93.8432 25.824 94.9632 28.128C95.7632 29.696 96.3712 30.832 96.7872 31.536C97.2352 32.208 97.6672 32.592 98.0832 32.688L99.6672 33.168V36H91.5072C90.9952 36 90.4512 35.488 89.8752 34.464C89.3312 33.408 88.6112 31.76 87.7152 29.52C86.6592 26.896 85.7472 24.848 84.9792 23.376C84.2112 21.904 83.3952 20.992 82.5312 20.64H77.5872V32.64L82.0032 33.12V36H66.7392V33.12ZM82.0032 17.712C83.8272 17.712 85.2512 17.056 86.2752 15.744C87.2992 14.432 87.8112 12.464 87.8112 9.84C87.8112 7.504 87.2992 5.776 86.2752 4.656C85.2832 3.536 83.5552 2.976 81.0912 2.976C80.1952 2.976 79.4272 3.024 78.7872 3.12C78.1792 3.184 77.7792 3.216 77.5872 3.216V17.616C77.9712 17.68 78.8992 17.712 80.3712 17.712H82.0032Z" fill="#222831"/>
</svg>
