<svg width="45" height="45" viewBox="0 0 45 45" fill="none" xmlns="http://www.w3.org/2000/svg">
<path d="M21.5625 40.7812C10.9687 40.7812 2.34375 32.1563 2.34375 21.5625C2.34375 10.9687 10.9687 2.34375 21.5625 2.34375C32.1563 2.34375 40.7812 10.9687 40.7812 21.5625C40.7812 32.1563 32.1563 40.7812 21.5625 40.7812ZM21.5625 5.15625C12.5063 5.15625 5.15625 12.525 5.15625 21.5625C5.15625 30.6 12.5063 37.9688 21.5625 37.9688C30.6187 37.9688 37.9688 30.6 37.9688 21.5625C37.9688 12.525 30.6187 5.15625 21.5625 5.15625Z" fill="#292D32"/>
<path d="M41.25 42.6562C40.8938 42.6562 40.5375 42.525 40.2563 42.2438L36.5063 38.4938C35.9625 37.95 35.9625 37.05 36.5063 36.5062C37.05 35.9625 37.95 35.9625 38.4938 36.5062L42.2438 40.2562C42.7875 40.8 42.7875 41.7 42.2438 42.2438C41.9625 42.525 41.6063 42.6562 41.25 42.6562Z" fill="#292D32"/>
</svg>
