<svg width="25" height="24" viewBox="0 0 25 24" fill="none" xmlns="http://www.w3.org/2000/svg">
<path d="M21.0015 5.25H3.00146C2.59146 5.25 2.25146 4.91 2.25146 4.5C2.25146 4.09 2.59146 3.75 3.00146 3.75H21.0015C21.4115 3.75 21.7515 4.09 21.7515 4.5C21.7515 4.91 21.4115 5.25 21.0015 5.25Z" fill="#292D32"/>
<path d="M12.4715 10.25H3.00146C2.59146 10.25 2.25146 9.91 2.25146 9.5C2.25146 9.09 2.59146 8.75 3.00146 8.75H12.4715C12.8815 8.75 13.2215 9.09 13.2215 9.5C13.2215 9.91 12.8915 10.25 12.4715 10.25Z" fill="#292D32"/>
<path d="M21.0015 15.25H3.00146C2.59146 15.25 2.25146 14.91 2.25146 14.5C2.25146 14.09 2.59146 13.75 3.00146 13.75H21.0015C21.4115 13.75 21.7515 14.09 21.7515 14.5C21.7515 14.91 21.4115 15.25 21.0015 15.25Z" fill="#292D32"/>
<path d="M12.4715 20.25H3.00146C2.59146 20.25 2.25146 19.91 2.25146 19.5C2.25146 19.09 2.59146 18.75 3.00146 18.75H12.4715C12.8815 18.75 13.2215 19.09 13.2215 19.5C13.2215 19.91 12.8915 20.25 12.4715 20.25Z" fill="#292D32"/>
</svg>
