<svg width="681" height="427" viewBox="0 0 681 427" fill="none" xmlns="http://www.w3.org/2000/svg">
<g clip-path="url(#clip0_8_82)">
<path d="M235.883 406.195C235.351 406.22 234.825 406.08 234.375 405.795C233.925 405.51 233.573 405.094 233.368 404.603C233.162 404.112 233.113 403.569 233.226 403.049C233.339 402.529 233.61 402.056 234.001 401.695L234.179 400.987C234.155 400.931 234.132 400.874 234.108 400.817C233.572 399.552 232.674 398.473 231.527 397.716C230.379 396.959 229.034 396.558 227.659 396.563C226.284 396.568 224.942 396.979 223.8 397.745C222.659 398.51 221.769 399.596 221.242 400.865C219.138 405.932 216.458 411.008 215.799 416.365C215.508 418.733 215.631 421.133 216.161 423.46C211.219 412.681 208.652 400.966 208.636 389.109C208.635 386.134 208.8 383.16 209.131 380.203C209.404 377.779 209.784 375.373 210.269 372.983C212.918 360.017 218.606 347.865 226.865 337.524C230.863 335.343 234.095 331.99 236.128 327.916C236.864 326.452 237.385 324.888 237.673 323.275C237.222 323.334 235.973 316.468 236.313 316.047C235.684 315.094 234.56 314.62 233.873 313.69C230.46 309.063 225.757 309.871 223.302 316.158C218.058 318.804 218.007 323.193 221.225 327.414C223.272 330.099 223.553 333.732 225.35 336.607C225.165 336.844 224.973 337.073 224.788 337.309C221.41 341.652 218.465 346.316 215.997 351.233C216.597 345.724 215.881 340.152 213.906 334.974C211.906 330.148 208.155 326.084 204.853 321.913C200.886 316.902 192.751 319.089 192.052 325.441C192.045 325.502 192.039 325.564 192.032 325.625C192.523 325.902 193.003 326.195 193.473 326.506C194.063 326.9 194.52 327.464 194.785 328.122C195.05 328.781 195.109 329.504 194.955 330.197C194.802 330.889 194.443 331.52 193.925 332.005C193.407 332.49 192.754 332.808 192.052 332.916L191.981 332.927C192.155 334.694 192.464 336.446 192.905 338.167C188.668 354.547 197.815 360.513 210.876 360.781C211.164 360.929 211.445 361.077 211.733 361.217C209.253 368.244 207.698 375.562 207.105 382.99C206.77 387.372 206.79 391.773 207.165 396.152L207.142 395.997C206.196 391.128 203.598 386.734 199.787 383.559C194.126 378.91 186.129 377.198 180.023 373.462C179.374 373.045 178.619 372.823 177.848 372.821C177.077 372.819 176.321 373.038 175.67 373.451C175.019 373.865 174.5 374.455 174.174 375.154C173.848 375.853 173.728 376.63 173.83 377.395C173.838 377.449 173.846 377.503 173.854 377.558C174.765 377.928 175.651 378.355 176.508 378.836C176.999 379.113 177.479 379.407 177.949 379.717C178.539 380.111 178.996 380.675 179.261 381.333C179.525 381.992 179.585 382.715 179.431 383.408C179.278 384.101 178.918 384.731 178.4 385.216C177.882 385.701 177.23 386.019 176.528 386.127L176.457 386.138C176.405 386.145 176.36 386.153 176.309 386.16C177.864 389.873 180.047 393.29 182.762 396.263C185.411 410.562 196.79 411.919 208.961 407.755H208.968C210.304 413.556 212.239 419.204 214.742 424.605H235.366C235.44 424.376 235.507 424.139 235.573 423.91C233.664 424.03 231.748 423.916 229.867 423.571C231.397 421.693 232.927 419.801 234.457 417.924C234.491 417.889 234.523 417.852 234.553 417.813C235.33 416.853 236.113 415.899 236.889 414.938L236.89 414.937C236.931 411.992 236.593 409.054 235.884 406.196L235.883 406.195Z" fill="#17CA7F"/>
<path d="M486.329 215.997H15.813C11.6206 215.993 7.60134 214.325 4.63686 211.362C1.67239 208.398 0.0048128 204.38 -3.05176e-05 200.189V15.8089C0.0048128 11.6176 1.67239 7.59933 4.63686 4.63564C7.60134 1.67195 11.6206 0.00481153 15.813 -3.05176e-05H486.329C490.521 0.00481153 494.54 1.67195 497.505 4.63564C500.469 7.59933 502.137 11.6176 502.142 15.8089V200.189C502.137 204.38 500.469 208.398 497.505 211.362C494.54 214.325 490.521 215.993 486.329 215.997V215.997Z" fill="#17CA7F"/>
<path d="M376.594 205.915H90.5001C69.1808 205.891 48.7416 197.413 33.6666 182.342C18.5915 167.271 10.1118 146.837 10.0877 125.524V90.4825C10.1118 69.1688 18.5915 48.7349 33.6665 33.6637C48.7415 18.5926 69.1808 10.115 90.5001 10.0908H411.644C432.963 10.115 453.403 18.5926 468.478 33.6637C483.553 48.7349 492.032 69.1688 492.056 90.4825C492.022 121.086 479.846 150.427 458.2 172.067C436.554 193.707 407.206 205.88 376.594 205.915V205.915Z" fill="white"/>
<path d="M302.793 62.8726H113.682C112.6 62.8726 111.563 62.4431 110.798 61.6784C110.033 60.9138 109.604 59.8768 109.604 58.7955C109.604 57.7142 110.033 56.6771 110.798 55.9125C111.563 55.1479 112.6 54.7184 113.682 54.7184H302.793C303.875 54.7184 304.912 55.1479 305.677 55.9125C306.442 56.6771 306.871 57.7142 306.871 58.7955C306.871 59.8768 306.442 60.9138 305.677 61.6784C304.912 62.4431 303.875 62.8726 302.793 62.8726V62.8726Z" fill="#E6E6E6"/>
<path d="M398.525 106.373H113.682C112.6 106.373 111.563 105.943 110.798 105.179C110.033 104.414 109.604 103.377 109.604 102.296C109.604 101.214 110.033 100.177 110.798 99.4127C111.563 98.6481 112.6 98.2186 113.682 98.2186H398.525C399.606 98.2186 400.644 98.6481 401.408 99.4127C402.173 100.177 402.603 101.214 402.603 102.296C402.603 103.377 402.173 104.414 401.408 105.179C400.644 105.943 399.606 106.373 398.525 106.373V106.373Z" fill="#E6E6E6"/>
<path d="M398.525 149.873H113.682C112.6 149.873 111.563 149.443 110.798 148.679C110.033 147.914 109.604 146.877 109.604 145.796C109.604 144.715 110.033 143.678 110.798 142.913C111.563 142.148 112.6 141.719 113.682 141.719H398.525C399.606 141.719 400.644 142.148 401.408 142.913C402.173 143.678 402.603 144.715 402.603 145.796C402.603 146.877 402.173 147.914 401.408 148.679C400.644 149.443 399.606 149.873 398.525 149.873V149.873Z" fill="#E6E6E6"/>
<path d="M398.525 149.873H113.682C112.6 149.873 111.563 149.443 110.798 148.679C110.033 147.914 109.604 146.877 109.604 145.796C109.604 144.715 110.033 143.678 110.798 142.913C111.563 142.148 112.6 141.719 113.682 141.719H398.525C399.606 141.719 400.644 142.148 401.408 142.913C402.173 143.678 402.603 144.715 402.603 145.796C402.603 146.877 402.173 147.914 401.408 148.679C400.644 149.443 399.606 149.873 398.525 149.873V149.873Z" fill="#E6E6E6"/>
<path d="M370.954 75.0493C373.562 60.8407 379.658 48.4005 390.373 38.3031C390.767 37.5598 391.44 37.003 392.244 36.7549C393.048 36.5069 393.918 36.5878 394.662 36.9799L422.421 51.6419C423.164 52.0357 423.721 52.7082 423.969 53.5119C424.217 54.3157 424.137 55.185 423.744 55.9292L404.325 92.6755C403.931 93.4188 403.258 93.9755 402.455 94.2236C401.651 94.4716 400.781 94.3907 400.037 93.9986L372.278 79.3366C371.534 78.9428 370.977 78.2703 370.729 77.4666C370.481 76.6628 370.562 75.7935 370.954 75.0493V75.0493Z" fill="#E6E6E6"/>
<path d="M378.949 65.075C379.292 57.6583 384.702 49.6339 391.433 41.4512C391.802 40.7551 392.432 40.2336 393.185 40.0013C393.938 39.769 394.753 39.8448 395.45 40.212L419.306 52.8128C420.002 53.1816 420.524 53.8114 420.756 54.5642C420.989 55.3169 420.913 56.1311 420.546 56.8281L403.265 89.5273C402.896 90.2234 402.266 90.7448 401.513 90.9771C400.76 91.2094 399.946 91.1336 399.249 90.7664L384.47 82.9605C381.369 81.3177 379.045 78.5121 378.01 75.1591C376.975 71.8061 377.313 68.1795 378.949 65.075V65.075Z" fill="white"/>
<path d="M406.962 69.8071L388.333 60.0334C388.038 59.8771 387.817 59.6103 387.719 59.2913C387.62 58.9724 387.652 58.6274 387.807 58.3318C387.962 58.0362 388.228 57.8141 388.546 57.7142C388.865 57.6142 389.21 57.6445 389.507 57.7985L408.136 67.5722C408.431 67.7285 408.652 67.9953 408.75 68.3142C408.849 68.6331 408.818 68.9781 408.662 69.2737C408.507 69.5693 408.241 69.7914 407.923 69.8914C407.604 69.9914 407.259 69.961 406.962 69.8071V69.8071Z" fill="#17CA7F"/>
<path d="M395.649 56.0555L391.55 53.9052C391.403 53.8286 391.272 53.7236 391.165 53.5963C391.058 53.469 390.978 53.3219 390.928 53.1634C390.878 53.0048 390.86 52.838 390.875 52.6726C390.89 52.5071 390.937 52.3462 391.015 52.1991C391.092 52.0519 391.197 51.9215 391.325 51.8153C391.453 51.709 391.6 51.629 391.759 51.5799C391.918 51.5308 392.085 51.5135 392.25 51.529C392.416 51.5445 392.577 51.5926 392.723 51.6703L396.822 53.8206C397.117 53.9769 397.338 54.2437 397.437 54.5626C397.535 54.8815 397.504 55.2265 397.348 55.5221C397.193 55.8177 396.927 56.0398 396.609 56.1398C396.29 56.2397 395.945 56.2094 395.649 56.0555V56.0555Z" fill="#17CA7F"/>
<path d="M401.805 79.6323L383.176 69.8585C382.881 69.7024 382.659 69.4356 382.56 69.1165C382.461 68.7975 382.493 68.4522 382.648 68.1564C382.803 67.8607 383.07 67.6385 383.388 67.5386C383.707 67.4387 384.053 67.4693 384.349 67.6236L402.978 77.3974C403.273 77.5536 403.494 77.8204 403.593 78.1393C403.692 78.4583 403.66 78.8033 403.505 79.0989C403.35 79.3945 403.084 79.6166 402.765 79.7165C402.446 79.8165 402.101 79.7862 401.805 79.6323V79.6323Z" fill="#17CA7F"/>
<path d="M404.384 74.7197L385.755 64.946C385.607 64.8693 385.476 64.7643 385.37 64.637C385.263 64.5097 385.182 64.3626 385.132 64.2041C385.083 64.0456 385.065 63.8788 385.08 63.7133C385.094 63.5478 385.142 63.3869 385.219 63.2398C385.296 63.0926 385.402 62.9622 385.53 62.856C385.657 62.7497 385.805 62.6698 385.964 62.6206C386.122 62.5715 386.289 62.5542 386.455 62.5697C386.62 62.5852 386.781 62.6333 386.928 62.7111L405.557 72.4848C405.852 72.6411 406.073 72.9079 406.172 73.2268C406.27 73.5457 406.239 73.8907 406.084 74.1863C405.928 74.4819 405.662 74.704 405.344 74.804C405.025 74.9039 404.68 74.8736 404.384 74.7197Z" fill="#17CA7F"/>
<path d="M571.685 324.413H562.049C561.593 324.413 561.142 324.503 560.721 324.677C560.3 324.852 559.917 325.107 559.595 325.429C559.273 325.751 559.017 326.134 558.843 326.555C558.669 326.976 558.579 327.427 558.579 327.882C558.579 328.802 558.213 329.685 557.563 330.335C556.912 330.986 556.03 331.351 555.109 331.351H522.984C522.529 331.351 522.078 331.261 521.657 331.087C521.236 330.913 520.853 330.657 520.531 330.335C520.209 330.013 519.953 329.631 519.779 329.21C519.604 328.789 519.515 328.338 519.515 327.882L518.879 324.366L518.921 324.413L518.879 324.366L513.056 316.944C512.866 316.697 512.62 316.497 512.339 316.361C512.059 316.225 511.75 316.155 511.438 316.158H500.518C499.972 316.159 499.45 316.376 499.064 316.761C498.679 317.146 498.462 317.669 498.461 318.214L498.236 324.366H494.107C493.24 324.366 492.381 324.537 491.58 324.868C490.779 325.2 490.051 325.686 489.438 326.299C488.825 326.912 488.338 327.64 488.007 328.441C487.675 329.242 487.504 330.1 487.504 330.967V373.961C487.504 374.731 487.656 375.492 487.95 376.203C488.245 376.914 488.676 377.56 489.22 378.104C489.764 378.648 490.41 379.079 491.121 379.374C491.832 379.668 492.594 379.819 493.364 379.819H571.685C573.238 379.818 574.727 379.2 575.825 378.101C576.924 377.003 577.541 375.514 577.543 373.961V330.27C577.543 329.501 577.391 328.739 577.097 328.029C576.802 327.318 576.371 326.673 575.827 326.129C575.283 325.585 574.637 325.154 573.926 324.859C573.216 324.565 572.454 324.413 571.685 324.413V324.413Z" fill="#17CA7F"/>
<path d="M518.883 324.207H498.461V318.055C498.462 317.51 498.679 316.988 499.064 316.602C499.45 316.217 499.972 316 500.518 315.999H511.438C511.75 315.997 512.059 316.066 512.34 316.202C512.62 316.339 512.866 316.538 513.056 316.785L518.883 324.207Z" fill="#E6E6E6"/>
<path d="M529.339 375.088H495.24C494.161 375.087 493.126 374.658 492.363 373.895C491.6 373.132 491.17 372.097 491.169 371.018V361.695C491.17 360.616 491.6 359.582 492.363 358.819C493.126 358.056 494.161 357.626 495.24 357.625H536.167C537.246 357.626 538.281 358.056 539.044 358.819C539.807 359.582 540.237 360.616 540.238 361.695V364.192C540.234 367.081 539.085 369.851 537.042 371.893C534.999 373.936 532.228 375.085 529.339 375.088Z" fill="white"/>
<path d="M505.056 364.658H496.64C496.092 364.658 495.567 364.44 495.18 364.053C494.793 363.666 494.575 363.141 494.575 362.594C494.575 362.046 494.793 361.521 495.18 361.134C495.567 360.747 496.092 360.53 496.64 360.53H505.056C505.603 360.53 506.129 360.747 506.516 361.134C506.903 361.521 507.12 362.046 507.12 362.594C507.12 363.141 506.903 363.666 506.516 364.053C506.129 364.44 505.603 364.658 505.056 364.658Z" fill="#17CA7F"/>
<path d="M533.64 371.167H496.64C496.368 371.167 496.099 371.114 495.848 371.011C495.597 370.907 495.369 370.755 495.177 370.564C494.985 370.372 494.832 370.144 494.728 369.894C494.624 369.643 494.571 369.374 494.571 369.103C494.571 368.831 494.624 368.563 494.728 368.312C494.832 368.061 494.985 367.834 495.177 367.642C495.369 367.45 495.597 367.298 495.848 367.195C496.099 367.091 496.368 367.038 496.64 367.039H533.64C534.187 367.039 534.712 367.256 535.099 367.643C535.487 368.031 535.704 368.555 535.704 369.103C535.704 369.65 535.487 370.175 535.099 370.562C534.712 370.949 534.187 371.167 533.64 371.167H533.64Z" fill="#17CA7F"/>
<path d="M605.916 371.585H596.28C595.825 371.585 595.373 371.675 594.952 371.849C594.531 372.023 594.149 372.279 593.827 372.601C593.504 372.923 593.249 373.305 593.075 373.726C592.9 374.147 592.81 374.598 592.81 375.054C592.81 375.974 592.445 376.856 591.794 377.506C591.143 378.157 590.261 378.522 589.341 378.522H557.216C556.76 378.522 556.309 378.433 555.888 378.258C555.467 378.084 555.084 377.829 554.762 377.506C554.44 377.184 554.185 376.802 554.01 376.381C553.836 375.96 553.746 375.509 553.746 375.054L553.111 371.537L553.152 371.585L553.111 371.537L547.288 364.115C547.097 363.868 546.852 363.669 546.571 363.532C546.29 363.396 545.982 363.327 545.67 363.329H534.749C534.204 363.33 533.681 363.547 533.296 363.932C532.91 364.318 532.693 364.84 532.693 365.385L532.467 371.537H528.339C527.471 371.537 526.613 371.708 525.812 372.04C525.011 372.371 524.283 372.858 523.669 373.471C523.056 374.084 522.57 374.811 522.238 375.612C521.906 376.413 521.735 377.272 521.735 378.138V421.133C521.735 421.902 521.887 422.664 522.182 423.375C522.476 424.085 522.908 424.731 523.452 425.275C523.996 425.819 524.642 426.251 525.353 426.545C526.064 426.839 526.826 426.991 527.595 426.991H605.916C607.469 426.989 608.959 426.371 610.057 425.273C611.155 424.175 611.773 422.686 611.774 421.133V377.441C611.774 376.672 611.623 375.911 611.328 375.2C611.034 374.49 610.602 373.844 610.058 373.3C609.514 372.756 608.869 372.325 608.158 372.031C607.447 371.736 606.685 371.585 605.916 371.585V371.585Z" fill="#17CA7F"/>
<path d="M553.114 371.378H532.693V365.227C532.693 364.682 532.91 364.159 533.296 363.774C533.681 363.388 534.204 363.171 534.749 363.171H545.67C545.982 363.168 546.29 363.237 546.571 363.374C546.852 363.51 547.097 363.71 547.288 363.957L553.114 371.378Z" fill="#E6E6E6"/>
<path d="M563.57 422.26H529.472C528.392 422.259 527.358 421.829 526.594 421.066C525.831 420.303 525.402 419.269 525.401 418.19V408.867C525.402 407.788 525.831 406.753 526.594 405.99C527.358 405.227 528.392 404.798 529.472 404.797H570.398C571.477 404.798 572.512 405.227 573.275 405.99C574.039 406.753 574.468 407.788 574.469 408.867V411.364C574.466 414.253 573.317 417.022 571.273 419.065C569.23 421.108 566.46 422.257 563.57 422.26V422.26Z" fill="white"/>
<path d="M539.287 411.829H530.871C530.324 411.829 529.798 411.612 529.411 411.225C529.024 410.837 528.807 410.313 528.807 409.765C528.807 409.218 529.024 408.693 529.411 408.306C529.798 407.919 530.324 407.701 530.871 407.701H539.287C539.835 407.701 540.36 407.919 540.747 408.306C541.134 408.693 541.352 409.218 541.352 409.765C541.352 410.313 541.134 410.837 540.747 411.225C540.36 411.612 539.835 411.829 539.287 411.829V411.829Z" fill="#17CA7F"/>
<path d="M567.871 418.338H530.871C530.6 418.339 530.331 418.286 530.08 418.182C529.829 418.079 529.601 417.927 529.408 417.735C529.216 417.543 529.064 417.316 528.96 417.065C528.856 416.814 528.802 416.546 528.802 416.274C528.802 416.003 528.856 415.734 528.96 415.483C529.064 415.233 529.216 415.005 529.408 414.813C529.601 414.622 529.829 414.47 530.08 414.366C530.331 414.263 530.6 414.21 530.871 414.21H567.871C568.419 414.21 568.944 414.428 569.331 414.815C569.718 415.202 569.935 415.727 569.935 416.274C569.935 416.822 569.718 417.347 569.331 417.734C568.944 418.121 568.419 418.338 567.871 418.338H567.871Z" fill="#17CA7F"/>
<path d="M452.843 410.802L444.886 410.801L441.101 380.12H452.845L452.843 410.802Z" fill="#FFB6B6"/>
<path d="M428.828 422.538C428.832 423.429 429.187 424.283 429.817 424.913C430.446 425.544 431.299 425.901 432.191 425.907H447.169L447.633 424.945L449.751 420.575L450.572 424.945L450.753 425.907H456.403L456.322 424.938L454.816 406.878L452.845 406.757L444.33 406.253L442.239 406.125V411.518C440.652 413.205 428.196 419.586 428.828 422.538Z" fill="#2F2E41"/>
<path d="M584.577 349.366L580.731 356.33L552.034 344.816L557.71 334.538L584.577 349.366Z" fill="#FFB6B6"/>
<path d="M583.249 376.057C584.031 376.484 584.95 376.586 585.807 376.34C586.664 376.093 587.388 375.519 587.824 374.742L595.062 361.632L594.445 360.762L591.641 356.795L595.865 358.189L596.795 358.495L599.525 353.55L598.638 353.153L582.095 345.744L581.036 347.41L576.48 354.619L575.357 356.388L580.079 358.994C580.79 361.198 580.359 375.184 583.249 376.057Z" fill="#2F2E41"/>
<path d="M466.156 208.586L496.219 221.347C496.219 221.347 505.838 241.876 499.186 244.818V299.09L567.854 338.82L547.157 373.384C547.157 373.384 520.589 366.524 520.867 360.26C521.144 353.997 524.207 351.519 515.085 350.715C505.964 349.911 500.796 350.582 501.044 344.993C501.293 339.404 468.828 310.342 468.828 310.342L466.156 208.586Z" fill="#2F2E41"/>
<path d="M473.358 219.005L465.736 210.443C465.736 210.443 448.615 238.548 448.679 244.321C448.744 250.094 434.147 279.864 434.147 279.864L416.046 386.102C416.046 386.102 450.958 394.398 453.646 394.628C456.334 394.858 460.867 396.274 458.017 390.896C455.166 385.518 458.017 385.518 458.017 385.518L459.768 303.723L473.358 247.465V219.005Z" fill="#2F2E41"/>
<path d="M469.361 136.707L483.958 133.205L492.399 143.556C496.251 147.179 499.124 151.718 500.748 156.751C502.373 161.783 502.697 167.145 501.69 172.336L493.884 212.591C493.884 212.591 507.897 225.433 506.145 232.438C503.304 243.799 471.972 233.766 466.579 234.561C461.186 235.356 454.18 226.633 453.012 221.655C451.844 216.677 456.607 204.73 458.267 205.003C459.927 205.276 453.688 180.289 453.688 180.289C453.688 180.289 454.18 163.558 460.019 158.889C463.6 155.973 466.514 152.325 468.565 148.189L469.361 136.707Z" fill="#17CA7F"/>
<path d="M405.987 73.5933C405.998 74.5747 406.222 75.5418 406.644 76.428C407.066 77.3141 407.676 78.098 408.43 78.7255C409.185 79.353 410.067 79.8091 411.016 80.0623C411.964 80.3155 412.956 80.3596 413.924 80.1918L432.298 108.534L441.389 105.38L419.319 71.8776C418.915 70.271 417.936 68.8683 416.567 67.9352C415.198 67.0022 413.534 66.6036 411.891 66.8151C410.247 67.0266 408.739 67.8334 407.65 69.0827C406.562 70.332 405.97 71.9369 405.987 73.5933H405.987Z" fill="#FFB6B6"/>
<path d="M479.668 172.397C479.668 172.397 486.588 157.585 481.325 151.002C476.062 144.419 472.215 137.727 469.27 135.914C466.326 134.101 454.587 113.111 451.628 112.484C448.67 111.857 450.968 108.454 446.837 106.628C442.706 104.801 441.52 104.788 441.534 103.602C441.547 102.416 431.46 88.1773 431.46 88.1773L421.092 94.6116L446.42 146.413L479.668 172.397Z" fill="#17CA7F"/>
<path d="M414.299 311.004C401.034 293.365 393.368 273.641 393.116 251.153C392.689 249.941 392.76 248.61 393.314 247.45C393.867 246.29 394.858 245.398 396.07 244.968L441.282 228.974C442.494 228.547 443.827 228.618 444.986 229.171C446.146 229.725 447.039 230.716 447.47 231.927L468.652 291.778C469.079 292.989 469.008 294.321 468.455 295.481C467.901 296.641 466.91 297.533 465.699 297.963L420.486 313.957C419.274 314.384 417.942 314.313 416.782 313.759C415.622 313.206 414.729 312.215 414.299 311.004V311.004Z" fill="#E6E6E6"/>
<path d="M411.369 291.7C403.391 283.636 399.976 269.253 397.751 253.222C397.351 252.087 397.417 250.84 397.936 249.754C398.454 248.668 399.382 247.832 400.517 247.429L439.373 233.684C440.508 233.284 441.756 233.351 442.842 233.869C443.929 234.387 444.765 235.315 445.168 236.449L464.017 289.708C464.418 290.843 464.351 292.091 463.833 293.177C463.314 294.263 462.386 295.099 461.251 295.502L437.181 304.016C432.124 305.799 426.566 305.503 421.727 303.194C416.888 300.885 413.163 296.751 411.369 291.7V291.7Z" fill="white"/>
<path d="M445.688 265.14L415.42 275.942C414.938 276.114 414.408 276.087 413.946 275.868C413.484 275.649 413.128 275.256 412.956 274.774C412.784 274.293 412.81 273.762 413.029 273.3C413.248 272.838 413.642 272.482 414.123 272.31L444.392 261.509C444.63 261.424 444.883 261.387 445.136 261.399C445.389 261.412 445.637 261.474 445.866 261.583C446.094 261.691 446.3 261.843 446.47 262.031C446.639 262.219 446.771 262.438 446.856 262.677C446.941 262.915 446.978 263.168 446.966 263.421C446.953 263.674 446.891 263.921 446.782 264.15C446.674 264.379 446.521 264.584 446.334 264.754C446.146 264.924 445.927 265.055 445.688 265.14V265.14Z" fill="#17CA7F"/>
<path d="M418.524 263.608L411.865 265.985C411.384 266.155 410.854 266.128 410.393 265.909C409.932 265.69 409.576 265.297 409.404 264.816C409.233 264.335 409.259 263.806 409.477 263.344C409.695 262.882 410.088 262.526 410.568 262.353L417.227 259.977C417.709 259.807 418.238 259.834 418.699 260.053C419.161 260.272 419.516 260.665 419.688 261.146C419.86 261.627 419.833 262.156 419.615 262.618C419.397 263.079 419.005 263.436 418.524 263.608V263.608Z" fill="#17CA7F"/>
<path d="M451.388 281.104L421.12 291.905C420.881 291.99 420.628 292.028 420.375 292.015C420.123 292.003 419.875 291.94 419.646 291.832C419.417 291.723 419.212 291.571 419.042 291.383C418.872 291.196 418.741 290.976 418.655 290.738C418.57 290.499 418.533 290.247 418.546 289.994C418.558 289.741 418.621 289.493 418.729 289.264C418.837 289.035 418.99 288.83 419.178 288.66C419.365 288.49 419.585 288.359 419.823 288.274L450.091 277.473C450.33 277.388 450.583 277.35 450.836 277.363C451.089 277.376 451.337 277.438 451.565 277.546C451.794 277.655 451.999 277.807 452.169 277.995C452.339 278.183 452.471 278.402 452.556 278.64C452.641 278.879 452.678 279.132 452.666 279.384C452.653 279.637 452.591 279.885 452.482 280.114C452.374 280.343 452.221 280.548 452.034 280.718C451.846 280.888 451.626 281.019 451.388 281.104Z" fill="#17CA7F"/>
<path d="M448.538 273.122L418.27 283.923C418.031 284.009 417.779 284.046 417.526 284.033C417.273 284.021 417.025 283.958 416.796 283.85C416.567 283.742 416.362 283.589 416.192 283.401C416.022 283.214 415.891 282.994 415.806 282.756C415.72 282.518 415.683 282.265 415.696 282.012C415.708 281.759 415.771 281.511 415.879 281.282C415.988 281.054 416.14 280.848 416.328 280.678C416.516 280.509 416.735 280.377 416.973 280.292L447.241 269.491C447.723 269.319 448.253 269.345 448.716 269.564C449.178 269.783 449.534 270.177 449.706 270.658C449.878 271.14 449.851 271.67 449.632 272.132C449.413 272.594 449.02 272.95 448.538 273.122V273.122Z" fill="#17CA7F"/>
<path d="M471.131 131.429C479.786 131.429 486.802 124.414 486.802 115.761C486.802 107.108 479.786 100.094 471.131 100.094C462.475 100.094 455.459 107.108 455.459 115.761C455.459 124.414 462.475 131.429 471.131 131.429Z" fill="#FFB6B6"/>
<path d="M454.652 113.717C455.484 114.271 456.476 114.536 457.474 114.47C457.704 113.271 457.741 112.043 457.583 110.832C458.177 111.919 458.624 113.079 458.912 114.284C461.699 113.675 461.575 112.847 464.447 113.28C465.236 113.447 465.982 113.773 466.639 114.24C467.296 114.707 467.85 115.304 468.266 115.995C468.683 116.685 468.953 117.453 469.059 118.252C469.165 119.051 469.106 119.863 468.885 120.638C469.494 119.307 472.021 119.912 472.447 121.436C472.891 123.039 471.913 124.66 470.977 126.037C467.632 130.956 476.282 140.025 472.937 144.945L472.472 145.501C475.396 143.98 478.162 142.173 480.731 140.108C480.292 138.164 480.215 136.156 480.506 134.185C480.869 135.809 481.758 137.267 483.036 138.334C492.498 130.916 503.881 120.237 501.788 117.645L495.418 106.421C488.724 94.6293 472.579 89.8926 462.577 99.0484C462.315 99.2926 461.723 99.1307 461.459 99.3877C458.586 100.132 454.907 101.481 453.029 103.777C451.159 106.078 452.195 112.059 454.652 113.717Z" fill="#2F2E41"/>
<path d="M466.912 235.048C454.162 228.252 444.156 218.669 437.784 205.397C437.195 204.796 436.869 203.986 436.877 203.145C436.884 202.304 437.225 201.5 437.825 200.91L460.224 178.918C460.825 178.329 461.635 178.003 462.476 178.011C463.318 178.018 464.122 178.359 464.712 178.959L493.84 208.61C494.429 209.211 494.755 210.02 494.748 210.862C494.74 211.703 494.399 212.506 493.799 213.097L471.4 235.089C470.799 235.678 469.989 236.004 469.148 235.996C468.307 235.989 467.503 235.648 466.912 235.048V235.048Z" fill="#E6E6E6"/>
<path d="M459.833 224.405C452.868 221.827 446.862 214.238 441.106 205.343C440.555 204.78 440.249 204.022 440.256 203.234C440.263 202.446 440.583 201.694 441.144 201.141L460.395 182.24C460.957 181.689 461.716 181.383 462.504 181.39C463.292 181.398 464.045 181.717 464.598 182.278L490.518 208.664C491.069 209.227 491.375 209.985 491.368 210.773C491.361 211.561 491.041 212.313 490.48 212.866L478.555 224.574C476.048 227.03 472.668 228.392 469.159 228.36C465.649 228.329 462.295 226.906 459.833 224.405Z" fill="white"/>
<path d="M472.845 199.157L457.876 213.936C457.758 214.052 457.618 214.144 457.465 214.207C457.311 214.27 457.147 214.301 456.981 214.3C456.815 214.299 456.651 214.266 456.498 214.201C456.345 214.137 456.207 214.043 456.09 213.925C455.974 213.807 455.882 213.667 455.819 213.514C455.757 213.36 455.725 213.196 455.726 213.03C455.727 212.864 455.761 212.7 455.825 212.548C455.89 212.395 455.984 212.256 456.102 212.14L471.071 197.361C471.189 197.244 471.329 197.152 471.482 197.09C471.636 197.027 471.8 196.995 471.966 196.996C472.132 196.997 472.296 197.031 472.449 197.095C472.602 197.16 472.74 197.254 472.857 197.372C472.973 197.49 473.065 197.629 473.128 197.783C473.19 197.936 473.222 198.101 473.221 198.267C473.22 198.432 473.186 198.596 473.122 198.749C473.057 198.902 472.963 199.04 472.845 199.157V199.157Z" fill="#17CA7F"/>
<path d="M456.305 205.76L453.012 209.012C452.773 209.247 452.451 209.378 452.117 209.376C451.782 209.373 451.462 209.239 451.226 209C450.991 208.762 450.86 208.44 450.862 208.106C450.864 207.771 450.999 207.451 451.238 207.216L454.531 203.964C454.649 203.847 454.788 203.755 454.942 203.692C455.096 203.629 455.26 203.597 455.426 203.598C455.592 203.599 455.757 203.633 455.91 203.697C456.063 203.761 456.201 203.855 456.318 203.973C456.435 204.092 456.527 204.231 456.589 204.385C456.652 204.539 456.683 204.704 456.682 204.87C456.681 205.035 456.647 205.2 456.582 205.352C456.518 205.505 456.423 205.644 456.305 205.76Z" fill="#17CA7F"/>
<path d="M480.644 207.052L465.675 221.831C465.557 221.947 465.417 222.039 465.263 222.102C465.11 222.165 464.945 222.196 464.78 222.195C464.614 222.194 464.45 222.161 464.297 222.096C464.144 222.032 464.006 221.938 463.889 221.82C463.773 221.702 463.68 221.562 463.618 221.409C463.556 221.255 463.524 221.091 463.525 220.925C463.526 220.759 463.56 220.595 463.624 220.443C463.689 220.29 463.783 220.151 463.901 220.035L478.87 205.256C478.988 205.139 479.128 205.047 479.281 204.985C479.435 204.922 479.599 204.89 479.765 204.891C479.931 204.892 480.095 204.926 480.248 204.99C480.4 205.055 480.539 205.149 480.656 205.267C480.772 205.385 480.864 205.524 480.927 205.678C480.989 205.831 481.021 205.996 481.02 206.162C481.019 206.327 480.985 206.491 480.92 206.644C480.856 206.797 480.762 206.935 480.644 207.052V207.052Z" fill="#17CA7F"/>
<path d="M476.744 203.104L461.775 217.883C461.657 218 461.518 218.093 461.364 218.155C461.21 218.218 461.046 218.25 460.88 218.249C460.714 218.248 460.549 218.215 460.396 218.151C460.243 218.086 460.105 217.992 459.988 217.874C459.871 217.756 459.779 217.616 459.717 217.462C459.654 217.309 459.623 217.144 459.624 216.978C459.625 216.812 459.659 216.648 459.724 216.495C459.789 216.342 459.883 216.204 460.001 216.087L474.97 201.308C475.209 201.073 475.531 200.942 475.865 200.945C476.2 200.947 476.52 201.082 476.755 201.32C476.99 201.558 477.121 201.88 477.119 202.214C477.117 202.549 476.982 202.869 476.744 203.104V203.104Z" fill="#17CA7F"/>
<path d="M444.654 265.758C444.468 264.795 444.494 263.802 444.729 262.849C444.965 261.897 445.405 261.006 446.018 260.24C446.632 259.474 447.405 258.851 448.283 258.412C449.162 257.974 450.125 257.732 451.106 257.703L463.422 226.253L472.961 227.52L458.06 264.766C457.986 266.421 457.308 267.992 456.154 269.18C455 270.369 453.45 271.093 451.798 271.215C450.145 271.337 448.505 270.849 447.189 269.844C445.872 268.838 444.97 267.384 444.654 265.758V265.758Z" fill="#FFB6B6"/>
<path d="M497.021 154.19C497.021 154.19 506.771 167.314 502.935 174.818C499.1 182.323 496.673 189.65 494.152 192.017C491.63 194.383 484.34 217.3 481.567 218.508C478.795 219.715 481.729 222.588 478.049 225.205C474.368 227.823 473.208 228.074 473.46 229.233C473.711 230.392 466.685 246.364 466.685 246.364L455.236 242.139L479.615 157.361L497.021 154.19Z" fill="#17CA7F"/>
<path d="M679.898 427L66.7397 426.359C66.4481 426.358 66.1687 426.242 65.9628 426.036C65.7569 425.829 65.6413 425.55 65.6413 425.258C65.6413 424.966 65.7569 424.687 65.9628 424.48C66.1687 424.274 66.4481 424.158 66.7397 424.157L679.898 424.797C680.043 424.797 680.187 424.825 680.321 424.88C680.455 424.935 680.577 425.017 680.679 425.119C680.782 425.221 680.863 425.343 680.919 425.477C680.975 425.61 681.003 425.754 681.003 425.899C681.003 426.044 680.975 426.187 680.919 426.321C680.863 426.455 680.782 426.576 680.679 426.679C680.577 426.781 680.455 426.862 680.321 426.917C680.187 426.972 680.043 427 679.898 427V427Z" fill="#CACACA"/>
<path d="M230.353 184.414C223.092 171.924 219.631 158.51 221.204 143.873C221.02 143.052 221.169 142.192 221.618 141.481C222.068 140.77 222.781 140.266 223.601 140.08L254.227 133.172C255.048 132.988 255.908 133.137 256.619 133.586C257.331 134.036 257.835 134.749 258.021 135.569L267.169 176.11C267.354 176.931 267.205 177.791 266.755 178.502C266.306 179.213 265.593 179.717 264.772 179.903L234.147 186.81C233.326 186.995 232.465 186.846 231.754 186.396C231.043 185.947 230.539 185.234 230.353 184.414V184.414Z" fill="#E6E6E6"/>
<path d="M229.938 171.639C225.375 165.781 224.266 156.168 224.057 145.576C223.884 144.807 224.024 144.001 224.445 143.335C224.866 142.669 225.534 142.197 226.302 142.023L252.622 136.087C253.391 135.914 254.197 136.054 254.863 136.475C255.529 136.895 256.001 137.563 256.175 138.331L264.316 174.407C264.489 175.176 264.349 175.981 263.929 176.647C263.508 177.313 262.84 177.785 262.071 177.96L245.767 181.637C242.342 182.405 238.752 181.784 235.785 179.91C232.817 178.036 230.715 175.061 229.938 171.639V171.639Z" fill="white"/>
<path d="M240.176 151.725C240.712 151.107 241.434 150.679 242.234 150.504C243.034 150.33 243.869 150.419 244.614 150.758C245.359 151.154 245.955 151.78 246.313 152.544C246.671 153.307 246.772 154.166 246.6 154.991C246.311 156.9 245.314 158.637 245.224 160.59C245.142 161.446 245.292 162.308 245.656 163.087C246.021 163.865 246.588 164.532 247.297 165.017C248.384 165.677 249.503 164.043 248.411 163.38C246.614 162.289 247.218 159.89 247.739 158.254C248.39 156.212 249.068 154.129 248.263 152.024C247.906 151.143 247.335 150.365 246.6 149.762C245.865 149.159 244.991 148.749 244.057 148.571C243.123 148.393 242.159 148.452 241.254 148.742C240.348 149.032 239.53 149.545 238.874 150.233C238.017 151.158 239.308 152.661 240.176 151.725V151.725Z" fill="#17CA7F"/>
<path d="M248.899 170.723C249.992 170.723 250.879 169.836 250.879 168.743C250.879 167.65 249.992 166.763 248.899 166.763C247.805 166.763 246.918 167.65 246.918 168.743C246.918 169.836 247.805 170.723 248.899 170.723Z" fill="#17CA7F"/>
<path d="M55.303 98.1897C48.0422 85.7001 44.5814 72.2865 46.1543 57.6491C45.9701 56.8283 46.1191 55.968 46.5685 55.2569C47.0179 54.5458 47.7311 54.042 48.5517 53.8559L79.1769 46.9485C79.9979 46.7643 80.8584 46.9132 81.5697 47.3625C82.281 47.8118 82.7849 48.5249 82.971 49.3452L92.1197 89.8858C92.3039 90.7066 92.155 91.5669 91.7056 92.278C91.2561 92.9891 90.5429 93.4929 89.7224 93.679L59.0971 100.586C58.2762 100.771 57.4156 100.622 56.7043 100.172C55.993 99.7231 55.4891 99.01 55.303 98.1897V98.1897Z" fill="#E6E6E6"/>
<path d="M54.8888 85.4149C50.3255 79.5572 49.2161 69.944 49.0073 59.3517C48.8347 58.583 48.9742 57.7773 49.3951 57.1114C49.816 56.4454 50.4839 55.9735 51.2524 55.7993L77.5723 49.8629C78.3411 49.6904 79.1471 49.8298 79.8132 50.2506C80.4794 50.6714 80.9514 51.3392 81.1257 52.1075L89.2668 88.1831C89.4393 88.9518 89.2998 89.7575 88.8789 90.4235C88.458 91.0895 87.79 91.5613 87.0215 91.7356L70.7169 95.413C67.2921 96.1814 63.7023 95.5603 60.735 93.686C57.7676 91.8116 55.6652 88.837 54.8888 85.4149V85.4149Z" fill="white"/>
<path d="M68.6454 88.1646C70.1783 88.1646 71.4209 86.9223 71.4209 85.3898C71.4209 83.8574 70.1783 82.6151 68.6454 82.6151C67.1125 82.6151 65.8699 83.8574 65.8699 85.3898C65.8699 86.9223 67.1125 88.1646 68.6454 88.1646Z" fill="#17CA7F"/>
<path d="M71.9622 59.0362C70.894 57.784 68.9393 57.983 67.3222 58.2911C65.6419 58.5352 64.0017 59.002 62.4448 59.6793C61.6674 60.0223 60.9655 60.5158 60.3798 61.1313C59.794 61.7469 59.336 62.4723 59.0321 63.2657C58.3861 65.2461 59.0895 67.3982 59.9333 69.3027C61.5578 72.9661 63.7141 76.3697 66.3325 79.4037L67.6556 80.0163C69.714 77.3947 71.2268 74.388 72.1052 71.1731C72.9835 67.9581 73.2095 64.6 72.77 61.2964C72.7198 60.4818 72.4397 59.6982 71.9622 59.0362Z" fill="#17CA7F"/>
</g>
<defs>
<clipPath id="clip0_8_82">
<rect width="681" height="427" fill="white"/>
</clipPath>
</defs>
</svg>
