<svg width="57" height="56" viewBox="0 0 57 56" fill="none" xmlns="http://www.w3.org/2000/svg">
<path d="M41.5663 52.6402H15.433C11.1863 52.6402 7.31297 49.3735 6.61297 45.1735L3.50964 26.6002C3.01964 23.7069 4.41965 19.9969 6.72965 18.1536L22.8997 5.20347C26.0263 2.68347 30.9496 2.70682 34.0996 5.22682L50.2697 18.1536C52.5563 19.9969 53.9563 23.7069 53.4897 26.6002L50.3863 45.1735C49.6863 49.3035 45.743 52.6402 41.5663 52.6402ZM28.4763 6.86018C27.2397 6.86018 26.003 7.23345 25.093 7.95678L8.92299 20.9069C7.59299 21.9802 6.683 24.3601 6.963 26.0401L10.0663 44.6135C10.4863 47.0635 12.9363 49.1402 15.433 49.1402H41.5663C44.063 49.1402 46.513 47.0635 46.933 44.5901L50.0363 26.0169C50.3163 24.3369 49.383 21.9335 48.0763 20.8835L31.9063 7.95678C30.973 7.23345 29.7363 6.86018 28.4763 6.86018Z" fill="black"/>
<path d="M28.5 37.9167C24.3234 37.9167 20.9167 34.51 20.9167 30.3333C20.9167 26.1567 24.3234 22.75 28.5 22.75C32.6767 22.75 36.0834 26.1567 36.0834 30.3333C36.0834 34.51 32.6767 37.9167 28.5 37.9167ZM28.5 26.25C26.26 26.25 24.4167 28.0933 24.4167 30.3333C24.4167 32.5733 26.26 34.4167 28.5 34.4167C30.74 34.4167 32.5834 32.5733 32.5834 30.3333C32.5834 28.0933 30.74 26.25 28.5 26.25Z" fill="black"/>
</svg>
