<svg width="680" height="407" viewBox="0 0 680 407" fill="none" xmlns="http://www.w3.org/2000/svg">
<g clip-path="url(#clip0_11_820)">
<path d="M520.624 402.397C511.918 395.033 506.63 383.399 508.017 372.073C509.404 360.748 517.993 350.336 529.135 347.931C540.276 345.526 552.977 352.183 556.361 363.079C558.224 342.072 560.37 320.185 571.526 302.296C581.627 286.098 599.123 274.507 618.085 272.434C637.047 270.36 657.012 278.192 668.837 293.175C680.663 308.158 683.559 329.94 675.276 347.142C669.175 359.814 657.934 369.245 646.156 376.917C608.098 401.5 562.452 411.497 517.617 405.068L520.624 402.397Z" fill="#64ECA4"/>
<path d="M650.086 278.626C634.44 291.384 620.087 305.653 607.234 321.226C587.118 345.515 570.84 372.747 558.968 401.974C558.098 404.106 561.557 405.034 562.416 402.926C581.842 355.426 612.854 313.56 652.615 281.158C654.401 279.702 651.857 277.182 650.086 278.626Z" fill="white"/>
<path d="M218.903 400.396C230.86 390.281 238.124 374.302 236.219 358.746C234.314 343.191 222.517 328.89 207.214 325.587C191.911 322.283 174.466 331.427 169.818 346.393C167.26 317.54 164.312 287.478 148.99 262.907C135.115 240.659 111.084 224.739 85.04 221.891C58.9959 219.043 31.5748 229.8 15.3321 250.379C-0.91065 270.958 -4.88762 300.876 6.48838 324.503C14.8687 341.908 30.3081 354.861 46.4848 365.399C98.0941 399.019 162.115 413.04 223.033 404.065" fill="#64ECA4"/>
<path d="M41.0867 230.396C62.5762 247.919 82.2907 267.518 99.9448 288.908C117.602 310.276 133.147 333.308 146.362 357.681C153.748 371.353 160.383 385.418 166.238 399.814C167.432 402.743 162.682 404.018 161.501 401.122C151.131 375.741 138.301 351.439 123.195 328.564C108.163 305.772 90.9579 284.494 71.8213 265.028C60.9976 254.023 49.5776 243.623 37.6132 233.874C35.1608 231.874 38.6545 228.413 41.0866 230.396L41.0867 230.396Z" fill="white"/>
<path d="M488.115 406.109H202.828V113.069C202.828 50.7224 253.493 0 315.77 0H375.173C437.449 0 488.115 50.7224 488.115 113.069V406.109Z" fill="#64ECA4"/>
<path d="M428.713 406.109H202.828V113.069C202.765 89.1792 210.322 65.8932 224.397 46.6013C224.915 45.8934 225.433 45.1945 225.967 44.5034C232.775 35.5643 240.876 27.6919 250.004 21.1458C250.52 20.7702 251.038 20.4011 251.563 20.0321C259.201 14.7404 267.463 10.4147 276.162 7.15315C276.679 6.95715 277.204 6.76076 277.73 6.57239C285.597 3.76177 293.752 1.8365 302.045 0.832149C302.559 0.761843 303.087 0.706827 303.615 0.651811C311.696 -0.213201 319.846 -0.213201 327.927 0.651811C328.453 0.706827 328.981 0.761836 329.501 0.832901C337.792 1.83732 345.945 3.76235 353.81 6.57243C354.336 6.76079 354.862 6.95717 355.38 7.15356C363.971 10.3739 372.136 14.6352 379.693 19.8422C380.218 20.2032 380.743 20.5723 381.261 20.9414C386.377 24.5977 391.183 28.6711 395.63 33.12C399.195 36.6884 402.518 40.4922 405.575 44.5057C406.107 45.1946 406.625 45.8934 407.143 46.6002C421.218 65.8923 428.775 89.1787 428.713 113.069V406.109Z" fill="#95FFC7"/>
<path d="M410.345 275.043C417.252 275.043 422.851 269.438 422.851 262.523C422.851 255.609 417.252 250.004 410.345 250.004C403.438 250.004 397.839 255.609 397.839 262.523C397.839 269.438 403.438 275.043 410.345 275.043Z" fill="#17CA7F"/>
<path d="M464.744 397.332H455.161L450.602 360.33L464.746 360.331L464.744 397.332Z" fill="#FFB8B8"/>
<path d="M448.317 394.591H466.797V406.24H436.681C436.681 404.71 436.982 403.195 437.567 401.782C438.151 400.368 439.008 399.084 440.089 398.003C441.169 396.921 442.452 396.063 443.864 395.478C445.276 394.892 446.789 394.591 448.317 394.591V394.591Z" fill="#2F2E41"/>
<path d="M512.422 397.332H502.84L498.281 360.33L512.424 360.331L512.422 397.332Z" fill="#FFB8B8"/>
<path d="M495.995 394.591H514.475V406.24H484.359C484.359 404.71 484.66 403.195 485.245 401.782C485.83 400.368 486.687 399.084 487.767 398.003C488.848 396.921 490.13 396.063 491.542 395.478C492.954 394.892 494.467 394.591 495.995 394.591V394.591Z" fill="#2F2E41"/>
<path d="M416.674 265.003C415.985 263.987 415.526 262.831 415.331 261.618C415.136 260.404 415.21 259.163 415.546 257.981C415.882 256.799 416.473 255.705 417.277 254.777C418.081 253.848 419.078 253.107 420.199 252.606L452.774 162.725L468.802 171.482L431.609 257.376C432.325 259.317 432.305 261.453 431.552 263.38C430.799 265.307 429.367 266.891 427.526 267.831C425.685 268.771 423.563 269.003 421.563 268.482C419.563 267.96 417.824 266.723 416.674 265.003V265.003Z" fill="#FFB8B8"/>
<path d="M507.527 281.893C506.463 281.281 505.544 280.444 504.838 279.439C504.131 278.434 503.653 277.286 503.438 276.076C503.222 274.867 503.274 273.624 503.59 272.437C503.906 271.249 504.478 270.146 505.266 269.203L495.175 174.124L513.416 174.959L517.61 268.481C519.103 269.912 520.02 271.841 520.188 273.903C520.356 275.965 519.762 278.017 518.519 279.67C517.276 281.323 515.471 282.463 513.445 282.872C511.419 283.282 509.314 282.933 507.527 281.893V281.893Z" fill="#FFB8B8"/>
<path d="M478.428 146.077C489.03 146.077 497.625 137.472 497.625 126.858C497.625 116.244 489.03 107.64 478.428 107.64C467.825 107.64 459.23 116.244 459.23 126.858C459.23 137.472 467.825 146.077 478.428 146.077Z" fill="#FFB8B8"/>
<path d="M507.405 260.269H449.529L449.599 259.818C449.703 259.144 459.913 192.181 452.383 170.274C451.627 168.121 451.693 165.764 452.569 163.657C453.445 161.551 455.068 159.843 457.126 158.862H457.127C467.891 153.787 488.553 147.539 505.993 162.704C508.559 164.972 510.563 167.807 511.846 170.984C513.13 174.161 513.657 177.594 513.387 181.011L507.405 260.269Z" fill="#17CA7F"/>
<path d="M460.645 202.077L434.589 196.785L446.802 167.81C447.533 165.003 449.346 162.602 451.843 161.131C454.341 159.661 457.318 159.243 460.123 159.968C462.928 160.693 465.332 162.502 466.806 164.999C468.281 167.495 468.706 170.475 467.988 173.285L460.645 202.077Z" fill="#17CA7F"/>
<path d="M494.016 211.903L492.45 175.955C491.262 169.197 495.126 162.809 501.069 161.764C507.014 160.724 512.818 165.411 514.011 172.218L519.899 205.809L494.016 211.903Z" fill="#17CA7F"/>
<path d="M505.479 255.965C514.792 291.472 515.808 336.615 513.295 385.857L500.79 384.292L478.123 290.394L465.617 385.857L451.548 385.075C447.345 333.408 443.253 289.052 449.985 259.877L505.479 255.965Z" fill="#2F2E41"/>
<path d="M491.077 141.711C487.495 145.53 480.844 143.48 480.378 138.262C480.341 137.857 480.344 137.45 480.386 137.045C480.626 134.734 481.96 132.636 481.641 130.196C481.568 129.588 481.342 129.009 480.984 128.514C478.13 124.688 471.431 130.225 468.738 126.762C467.086 124.638 469.027 121.295 467.76 118.921C466.087 115.788 461.133 117.334 458.026 115.618C454.569 113.709 454.776 108.399 457.051 105.17C459.827 101.231 464.692 99.1293 469.497 98.8264C474.302 98.5235 479.074 99.8239 483.56 101.574C488.657 103.563 493.712 106.311 496.848 110.798C500.663 116.254 501.03 123.59 499.122 129.97C497.961 133.851 494.001 138.592 491.077 141.711Z" fill="#2F2E41"/>
<path d="M656.537 406.613H79.4799C79.2336 406.612 78.9976 406.513 78.8236 406.339C78.6497 406.164 78.552 405.928 78.552 405.681C78.552 405.434 78.6497 405.198 78.8236 405.023C78.9976 404.848 79.2336 404.75 79.4799 404.749H656.537C656.784 404.75 657.02 404.848 657.194 405.023C657.368 405.198 657.465 405.434 657.465 405.681C657.465 405.928 657.368 406.164 657.194 406.339C657.02 406.513 656.784 406.612 656.537 406.613V406.613Z" fill="#3F3D56"/>
<path d="M366.575 321.21H264.965C263.627 321.217 262.341 320.692 261.388 319.751C260.436 318.81 259.895 317.529 259.885 316.19V89.1369C259.895 87.7972 260.436 86.5164 261.388 85.5753C262.341 84.6342 263.627 84.1098 264.965 84.117H366.575C367.913 84.1098 369.199 84.6342 370.152 85.5753C371.104 86.5164 371.645 87.7972 371.655 89.1369V316.19C371.645 317.529 371.104 318.81 370.152 319.751C369.199 320.692 367.913 321.217 366.575 321.21V321.21Z" fill="white"/>
<path d="M371.655 157.584H259.885V159.149H371.655V157.584Z" fill="#95FFC7"/>
<path d="M372.046 246.874H260.276V248.439H372.046V246.874Z" fill="#95FFC7"/>
<path d="M296.621 84.1171H295.057V321.992H296.621V84.1171Z" fill="#95FFC7"/>
<path d="M335.701 84.1171H334.138V321.992H335.701V84.1171Z" fill="#95FFC7"/>
</g>
<defs>
<clipPath id="clip0_11_820">
<rect width="680" height="407" fill="white"/>
</clipPath>
</defs>
</svg>
