<svg width="55" height="54" viewBox="0 0 55 54" fill="none" xmlns="http://www.w3.org/2000/svg">
<path d="M34.7899 50.1076H34.4974C24.5074 50.1076 19.6924 46.1701 18.8599 37.3501C18.7699 36.4276 19.4449 35.5951 20.3899 35.5051C21.2899 35.4151 22.1449 36.1126 22.2349 37.0351C22.8874 44.1001 26.2174 46.7326 34.5199 46.7326H34.8124C43.9699 46.7326 47.2099 43.4926 47.2099 34.3351V19.6651C47.2099 10.5076 43.9699 7.26758 34.8124 7.26758H34.5199C26.1724 7.26758 22.8424 9.94508 22.2349 17.1451C22.1224 18.0676 21.3349 18.7651 20.3899 18.6751C19.4449 18.6076 18.7699 17.7751 18.8374 16.8526C19.6024 7.89758 24.4399 3.89258 34.4974 3.89258H34.7899C45.8374 3.89258 50.5624 8.61758 50.5624 19.6651V34.3351C50.5624 45.3826 45.8374 50.1076 34.7899 50.1076Z" fill="#292D32"/>
<path d="M34.25 28.6875H8.64502C7.72252 28.6875 6.95752 27.9225 6.95752 27C6.95752 26.0775 7.72252 25.3125 8.64502 25.3125H34.25C35.1725 25.3125 35.9375 26.0775 35.9375 27C35.9375 27.9225 35.1725 28.6875 34.25 28.6875Z" fill="#292D32"/>
<path d="M13.6625 36.2249C13.235 36.2249 12.8075 36.0674 12.47 35.7299L4.93249 28.1924C4.27999 27.5399 4.27999 26.4599 4.93249 25.8074L12.47 18.2699C13.1225 17.6174 14.2025 17.6174 14.855 18.2699C15.5075 18.9224 15.5075 20.0024 14.855 20.6549L8.50999 26.9999L14.855 33.3449C15.5075 33.9974 15.5075 35.0774 14.855 35.7299C14.54 36.0674 14.09 36.2249 13.6625 36.2249Z" fill="#292D32"/>
</svg>
