<svg width="742" height="383" viewBox="0 0 742 383" fill="none" xmlns="http://www.w3.org/2000/svg">
<path d="M371 342.333C575.898 342.333 742 337.692 742 331.966C742 326.241 575.898 321.599 371 321.599C166.102 321.599 0 326.241 0 331.966C0 337.692 166.102 342.333 371 342.333Z" fill="#E6E6E6"/>
<path d="M568.717 219.631C568.248 219.638 567.78 219.644 567.305 219.644C566.83 219.644 566.362 219.638 565.893 219.631C541.058 219.067 523.058 203.566 527.64 187.302L538.812 147.625L541.636 137.586L591.691 138.439L594.732 148.26L606.707 186.917C611.777 203.271 593.776 219.067 568.717 219.631Z" fill="#3F3D56"/>
<path opacity="0.2" d="M594.732 148.26C586.198 153.134 576.516 155.644 566.686 155.533C556.856 155.421 547.234 152.692 538.812 147.625L541.636 137.586L591.691 138.439L594.732 148.26Z" fill="black"/>
<path d="M592.62 188.618C594.782 180.568 601.889 168.955 621.819 154.952C656.577 130.529 635.842 112.216 634.944 111.448C633.059 109.839 633.337 108.032 635.591 107.414C636.9 107.153 638.25 107.174 639.551 107.477C640.851 107.779 642.072 108.355 643.131 109.168C644.256 110.098 670.22 132.248 630.998 159.804C595.7 184.607 603.205 200.798 603.291 200.953C604.237 202.685 602.72 204.07 599.9 204.052C597.08 204.033 594.026 202.615 593.077 200.885C592.877 200.519 590.606 196.113 592.62 188.618Z" fill="#3F3D56"/>
<path d="M544.203 225.414C543.445 225.414 542.694 225.265 541.993 224.975C541.292 224.685 540.655 224.26 540.119 223.724C539.583 223.188 539.157 222.552 538.867 221.852C538.577 221.152 538.427 220.402 538.427 219.644V194.642C538.427 193.112 539.036 191.644 540.119 190.562C541.202 189.48 542.671 188.873 544.203 188.873C545.735 188.873 547.204 189.48 548.287 190.562C549.37 191.644 549.979 193.112 549.979 194.642V219.644C549.979 220.402 549.829 221.152 549.539 221.852C549.249 222.552 548.823 223.188 548.287 223.724C547.751 224.26 547.114 224.685 546.413 224.975C545.713 225.265 544.961 225.414 544.203 225.414V225.414Z" fill="#3F3D56"/>
<path d="M549.267 166.058C548.95 166.746 548.5 167.365 547.944 167.88C547.387 168.395 546.734 168.795 546.023 169.058C545.312 169.321 544.555 169.441 543.798 169.412C543.04 169.383 542.295 169.204 541.606 168.888L518.87 158.438C517.48 157.797 516.401 156.631 515.871 155.197C515.341 153.762 515.403 152.176 516.042 150.787C516.682 149.398 517.848 148.319 519.283 147.788C520.719 147.257 522.306 147.317 523.698 147.955L546.434 158.405C547.123 158.721 547.743 159.171 548.258 159.727C548.773 160.283 549.174 160.934 549.437 161.645C549.7 162.356 549.82 163.111 549.791 163.868C549.762 164.626 549.584 165.369 549.267 166.058V166.058Z" fill="#3F3D56"/>
<path d="M585.343 166.058C585.66 166.746 586.11 167.365 586.666 167.88C587.223 168.395 587.876 168.795 588.587 169.058C589.298 169.321 590.055 169.441 590.812 169.412C591.57 169.383 592.315 169.205 593.004 168.888L615.74 158.438C617.132 157.798 618.212 156.633 618.743 155.197C619.275 153.762 619.213 152.175 618.573 150.785C617.933 149.395 616.766 148.315 615.329 147.785C613.893 147.254 612.304 147.315 610.912 147.955L588.176 158.405C587.487 158.721 586.867 159.171 586.352 159.727C585.837 160.283 585.436 160.935 585.173 161.645C584.91 162.356 584.79 163.111 584.819 163.868C584.848 164.626 585.026 165.37 585.343 166.058V166.058Z" fill="#3F3D56"/>
<path d="M590.407 225.414C591.166 225.414 591.917 225.265 592.617 224.975C593.318 224.685 593.955 224.26 594.491 223.724C595.027 223.188 595.453 222.552 595.743 221.852C596.033 221.152 596.183 220.402 596.183 219.644V194.642C596.183 193.112 595.574 191.644 594.491 190.562C593.408 189.48 591.939 188.873 590.407 188.873C588.875 188.873 587.406 189.48 586.323 190.562C585.24 191.644 584.632 193.112 584.632 194.642V219.644C584.632 220.402 584.781 221.152 585.071 221.852C585.361 222.552 585.787 223.188 586.323 223.724C586.86 224.26 587.496 224.685 588.197 224.975C588.898 225.265 589.649 225.414 590.407 225.414V225.414Z" fill="#3F3D56"/>
<path d="M614.544 63.551C615.043 62.923 615.403 62.1964 615.601 61.4192C615.798 60.642 615.829 59.8317 615.69 59.0419L612.547 40.5688L609.403 22.0958C609.234 21.0984 608.804 20.1632 608.158 19.3842C607.512 18.6051 606.672 18.0098 605.722 17.6579C604.773 17.306 603.747 17.2101 602.749 17.3796C601.75 17.5492 600.814 17.9783 600.034 18.6238L585.592 30.5798L576.891 37.7828C571.088 36.752 565.157 36.6627 559.325 37.5182L550.944 30.5798L536.501 18.6238C535.721 17.9783 534.785 17.5492 533.787 17.3796C532.788 17.2101 531.763 17.3061 530.813 17.6579C529.864 18.0098 529.024 18.6052 528.377 19.3842C527.731 20.1632 527.302 21.0984 527.132 22.0958L523.989 40.5689L520.845 59.0419C520.677 60.0128 520.764 61.0105 521.097 61.938C515.71 70.1879 512.634 79.729 512.189 89.5689C511.745 99.4088 513.947 109.188 518.568 117.889C523.189 126.59 530.059 133.896 538.464 139.046C546.869 144.195 556.502 147.001 566.36 147.171C576.218 147.342 585.942 144.87 594.52 140.013C603.098 135.157 610.217 128.093 615.136 119.556C620.055 111.019 622.595 101.322 622.49 91.4728C622.386 81.6234 619.642 71.9819 614.544 63.551V63.551Z" fill="#3F3D56"/>
<path d="M535.054 26.1938C534.711 26.1943 534.372 26.2559 534.051 26.3757C533.579 26.5473 533.161 26.8412 532.841 27.2274C532.521 27.6135 532.309 28.0779 532.228 28.5729L528.416 50.9749C528.332 51.4687 528.379 51.9759 528.554 52.4456C528.728 52.9152 529.023 53.3307 529.409 53.6503C529.796 53.9699 530.259 54.1823 530.753 54.2662C531.248 54.3501 531.755 54.3026 532.226 54.1284L553.552 46.225C554.022 46.0508 554.438 45.7561 554.757 45.3705C555.077 44.9849 555.29 44.5219 555.374 44.0282C555.458 43.5344 555.41 43.0273 555.236 42.5577C555.062 42.0881 554.767 41.6727 554.381 41.3531L554.38 41.3525L536.866 26.854C536.358 26.4287 535.717 26.1951 535.054 26.1938V26.1938Z" fill="#E6E6E6"/>
<path d="M601.482 26.1938C600.819 26.1951 600.177 26.4287 599.669 26.854L582.155 41.3531C581.769 41.6727 581.474 42.0881 581.299 42.5577C581.125 43.0273 581.077 43.5344 581.162 44.0282C581.246 44.5219 581.458 44.9849 581.778 45.3705C582.098 45.7561 582.514 46.0508 582.984 46.225L604.31 54.1284C604.78 54.3026 605.288 54.3501 605.782 54.2662C606.276 54.1823 606.74 53.9699 607.126 53.6503C607.512 53.3307 607.807 52.9152 607.981 52.4456C608.156 51.9759 608.203 51.4687 608.119 50.9749L604.308 28.5729C604.226 28.0779 604.015 27.6135 603.694 27.2274C603.374 26.8412 602.956 26.5473 602.485 26.3757C602.164 26.2559 601.824 26.1943 601.482 26.1938Z" fill="#E6E6E6"/>
<path d="M567.305 107.455C571.558 107.455 575.006 104.011 575.006 99.7625C575.006 95.5138 571.558 92.0696 567.305 92.0696C563.052 92.0696 559.604 95.5138 559.604 99.7625C559.604 104.011 563.052 107.455 567.305 107.455Z" fill="#E6E6E6"/>
<path d="M567.305 97.8394C570.14 97.8394 572.439 96.9783 572.439 95.9161C572.439 94.854 570.14 93.9929 567.305 93.9929C564.47 93.9929 562.171 94.854 562.171 95.9161C562.171 96.9783 564.47 97.8394 567.305 97.8394Z" fill="#3F3D56"/>
<path d="M563.455 104.25H570.514V112.905C570.514 113.368 570.422 113.826 570.245 114.254C570.068 114.682 569.808 115.071 569.48 115.398C569.152 115.725 568.763 115.985 568.335 116.162C567.907 116.34 567.448 116.431 566.984 116.431V116.431C566.048 116.431 565.15 116.059 564.488 115.398C563.826 114.737 563.455 113.84 563.455 112.905V104.25H563.455Z" fill="#FF6584"/>
<path d="M567.734 16.991C567.363 17.7578 567.004 18.5329 566.666 19.3239C562.683 28.6027 561.34 38.7991 562.785 48.7912C563.507 47.744 564.266 46.653 565.039 45.5499C563.385 35.96 564.315 26.1031 567.734 16.991V16.991Z" fill="#3F3D56"/>
<path d="M573.509 24.043C573.139 24.8098 572.779 25.5849 572.441 26.3759C568.459 35.6547 567.116 45.8512 568.56 55.8433C569.282 54.7961 570.042 53.705 570.814 52.6019C569.16 43.012 570.09 33.1551 573.509 24.043V24.043Z" fill="#3F3D56"/>
<path d="M591.315 162.485L590.502 152.149L589.688 141.812C589.644 141.254 589.454 140.717 589.137 140.256C588.819 139.794 588.386 139.424 587.88 139.183C587.374 138.942 586.814 138.839 586.255 138.882C585.696 138.926 585.159 139.116 584.697 139.433L576.143 145.306L569.897 149.594C569.498 149.127 569.002 148.752 568.444 148.495C567.885 148.238 567.278 148.105 566.663 148.105C566.048 148.105 565.441 148.238 564.883 148.495C564.325 148.752 563.829 149.127 563.43 149.594L557.183 145.306L548.629 139.433C548.167 139.116 547.63 138.926 547.071 138.882C546.513 138.838 545.952 138.942 545.446 139.183C544.941 139.424 544.507 139.794 544.19 140.256C543.872 140.717 543.682 141.254 543.638 141.812L542.825 152.149L542.011 162.485C541.967 163.043 542.071 163.603 542.312 164.108C542.554 164.614 542.924 165.047 543.386 165.364C543.848 165.681 544.385 165.871 544.943 165.915C545.502 165.959 546.063 165.855 546.568 165.614L555.936 161.149L563.633 157.481C564.029 157.882 564.501 158.2 565.021 158.418C565.541 158.635 566.099 158.747 566.663 158.747C567.227 158.747 567.785 158.635 568.305 158.418C568.825 158.2 569.297 157.882 569.693 157.481L577.39 161.149L586.758 165.614C587.264 165.855 587.824 165.959 588.383 165.915C588.942 165.871 589.479 165.681 589.941 165.364C590.403 165.047 590.773 164.614 591.014 164.108C591.255 163.603 591.359 163.043 591.315 162.485V162.485Z" fill="#17CA7F"/>
<path d="M557.037 93.3518C558.101 93.3518 558.963 92.4908 558.963 91.4286C558.963 90.3664 558.101 89.5054 557.037 89.5054C555.974 89.5054 555.112 90.3664 555.112 91.4286C555.112 92.4908 555.974 93.3518 557.037 93.3518Z" fill="#E6E6E6"/>
<path d="M577.573 93.3518C578.636 93.3518 579.498 92.4908 579.498 91.4286C579.498 90.3664 578.636 89.5054 577.573 89.5054C576.509 89.5054 575.647 90.3664 575.647 91.4286C575.647 92.4908 576.509 93.3518 577.573 93.3518Z" fill="#E6E6E6"/>
<path d="M194.811 202.64C195.279 202.647 195.748 202.653 196.223 202.653C196.698 202.653 197.166 202.647 197.634 202.64C222.469 202.076 240.47 186.575 235.888 170.311L224.715 130.634L221.892 120.595L171.837 121.448L168.795 131.269L156.821 169.926C151.751 186.28 169.752 202.076 194.811 202.64Z" fill="#3F3D56"/>
<path opacity="0.2" d="M168.795 131.269C177.33 136.143 187.012 138.653 196.842 138.542C206.672 138.43 216.294 135.701 224.715 130.634L221.892 120.595L171.837 121.448L168.795 131.269Z" fill="black"/>
<path d="M164.828 166.925C159.426 160.573 148.028 153.114 124.017 148.978C82.1405 141.761 93.0372 116.346 93.5206 115.269C94.5348 113.008 93.5092 111.494 91.2077 111.899C89.9124 112.222 88.7013 112.819 87.6555 113.648C86.6097 114.477 85.7534 115.52 85.144 116.707C84.5252 118.028 70.5456 149.147 117.798 157.287C160.326 164.616 160.478 182.457 160.467 182.635C160.353 184.604 162.318 185.208 164.858 183.986C167.399 182.763 169.553 180.176 169.67 178.207C169.693 177.791 169.859 172.837 164.828 166.925Z" fill="#3F3D56"/>
<path d="M219.325 208.423C220.083 208.423 220.834 208.274 221.535 207.984C222.236 207.694 222.872 207.269 223.409 206.733C223.945 206.197 224.371 205.561 224.661 204.861C224.951 204.161 225.1 203.411 225.1 202.653V177.651C225.099 176.122 224.489 174.656 223.406 173.576C222.323 172.495 220.855 171.888 219.325 171.888C217.794 171.888 216.326 172.495 215.243 173.576C214.16 174.656 213.551 176.122 213.549 177.651V202.653C213.549 203.411 213.699 204.161 213.989 204.861C214.279 205.561 214.705 206.197 215.241 206.733C215.777 207.269 216.414 207.694 217.115 207.984C217.815 208.274 218.566 208.423 219.325 208.423V208.423Z" fill="#3F3D56"/>
<path d="M214.261 149.067C214.578 149.755 215.028 150.374 215.584 150.889C216.141 151.404 216.793 151.804 217.505 152.067C218.216 152.33 218.972 152.45 219.73 152.421C220.488 152.392 221.233 152.214 221.922 151.897L244.658 141.447C245.348 141.13 245.969 140.682 246.485 140.126C247.001 139.57 247.402 138.918 247.666 138.207C247.929 137.496 248.05 136.74 248.021 135.982C247.992 135.224 247.814 134.48 247.496 133.791C247.179 133.102 246.729 132.483 246.172 131.968C245.615 131.453 244.962 131.053 244.25 130.79C243.538 130.527 242.781 130.408 242.023 130.437C241.264 130.467 240.519 130.646 239.83 130.964L217.094 141.414C216.405 141.73 215.785 142.18 215.27 142.736C214.754 143.292 214.354 143.943 214.091 144.654C213.828 145.365 213.707 146.12 213.736 146.877C213.766 147.635 213.944 148.379 214.261 149.067V149.067Z" fill="#3F3D56"/>
<path d="M178.185 149.067C177.868 149.755 177.418 150.374 176.861 150.889C176.305 151.404 175.652 151.804 174.941 152.067C174.229 152.33 173.473 152.45 172.715 152.421C171.957 152.392 171.213 152.214 170.524 151.897L147.787 141.447C147.098 141.13 146.477 140.682 145.961 140.126C145.445 139.57 145.043 138.918 144.78 138.207C144.516 137.496 144.395 136.74 144.425 135.982C144.454 135.224 144.632 134.48 144.949 133.791C145.266 133.102 145.716 132.483 146.273 131.968C146.83 131.453 147.484 131.053 148.196 130.79C148.908 130.527 149.664 130.408 150.423 130.437C151.181 130.467 151.926 130.646 152.615 130.964L175.352 141.414C176.041 141.73 176.661 142.18 177.176 142.736C177.691 143.292 178.092 143.943 178.355 144.654C178.618 145.365 178.738 146.12 178.709 146.877C178.68 147.635 178.502 148.379 178.185 149.067Z" fill="#3F3D56"/>
<path d="M173.121 208.423C172.362 208.423 171.611 208.274 170.911 207.984C170.21 207.694 169.573 207.269 169.037 206.733C168.5 206.197 168.075 205.561 167.785 204.861C167.495 204.161 167.345 203.411 167.345 202.653V177.651C167.347 176.122 167.956 174.656 169.039 173.576C170.122 172.495 171.59 171.888 173.121 171.888C174.651 171.888 176.119 172.495 177.202 173.576C178.285 174.656 178.894 176.122 178.896 177.651V202.653C178.896 203.411 178.747 204.161 178.457 204.861C178.166 205.561 177.741 206.197 177.205 206.733C176.668 207.269 176.032 207.694 175.331 207.984C174.63 208.274 173.879 208.423 173.121 208.423V208.423Z" fill="#3F3D56"/>
<path d="M242.431 44.9469C242.764 44.0194 242.85 43.0216 242.682 42.0507L239.539 23.5777L236.396 5.10463C236.226 4.10722 235.797 3.172 235.15 2.39299C234.504 1.61398 233.664 1.01862 232.715 0.666748C231.765 0.314872 230.74 0.218874 229.741 0.388421C228.743 0.557968 227.807 0.987083 227.027 1.63262L212.584 13.5886L204.203 20.527C198.371 19.6715 192.44 19.7608 186.637 20.7916L177.936 13.5886L163.493 1.6326C162.714 0.987056 161.778 0.557943 160.779 0.388396C159.781 0.218848 158.755 0.314834 157.806 0.66671C156.856 1.01858 156.016 1.61395 155.37 2.39296C154.724 3.17198 154.294 4.10719 154.124 5.10461L150.981 23.5777L147.838 42.0507C147.699 42.8405 147.729 43.6508 147.927 44.428C148.125 45.2052 148.485 45.9318 148.984 46.5598C143.879 54.9926 141.13 64.6381 141.022 74.4924C140.914 84.3468 143.452 94.0499 148.372 102.592C153.291 111.134 160.413 118.203 168.994 123.063C177.576 127.923 187.305 130.397 197.168 130.226C207.032 130.056 216.669 127.248 225.078 122.095C233.487 116.942 240.359 109.631 244.98 100.924C249.601 92.2176 251.802 82.4327 251.354 72.588C250.906 62.7432 247.824 53.1984 242.431 44.9469H242.431Z" fill="#3F3D56"/>
<path d="M226.661 9.86305L209.147 24.3615L209.147 24.3621C208.761 24.6817 208.466 25.0972 208.292 25.5667C208.117 26.0363 208.07 26.5434 208.154 27.0372C208.238 27.5309 208.451 27.9939 208.77 28.3795C209.09 28.7652 209.506 29.0599 209.976 29.2341L231.302 37.1374C231.772 37.3116 232.28 37.3591 232.774 37.2752C233.269 37.1913 233.732 36.9789 234.118 36.6593C234.504 36.3397 234.8 35.9242 234.974 35.4546C235.148 34.985 235.196 34.4778 235.112 33.9839L231.3 11.5819C231.219 11.0869 231.007 10.6225 230.687 10.2364C230.366 9.85027 229.949 9.55631 229.477 9.38475C229.156 9.26496 228.817 9.20337 228.474 9.20288C227.811 9.20412 227.17 9.43775 226.661 9.86305V9.86305Z" fill="#E6E6E6"/>
<path d="M161.043 9.38475C160.571 9.55631 160.154 9.85026 159.833 10.2364C159.513 10.6225 159.301 11.0869 159.22 11.5819L155.408 33.9839C155.324 34.4778 155.372 34.985 155.546 35.4546C155.721 35.9242 156.016 36.3397 156.402 36.6593C156.788 36.9789 157.251 37.1913 157.746 37.2752C158.24 37.3591 158.748 37.3116 159.218 37.1374L180.544 29.2341C181.014 29.0599 181.43 28.7651 181.75 28.3795C182.07 27.9939 182.282 27.5309 182.366 27.0372C182.45 26.5434 182.403 26.0363 182.228 25.5667C182.054 25.0972 181.759 24.6817 181.373 24.3621L163.859 9.86305C163.351 9.43775 162.709 9.20412 162.046 9.20288C161.704 9.20337 161.364 9.26496 161.043 9.38475Z" fill="#E6E6E6"/>
<path d="M196.223 90.4645C200.476 90.4645 203.923 87.0202 203.923 82.7716C203.923 78.5229 200.476 75.0786 196.223 75.0786C191.97 75.0786 188.522 78.5229 188.522 82.7716C188.522 87.0202 191.97 90.4645 196.223 90.4645Z" fill="#E6E6E6"/>
<path d="M196.223 80.8484C199.058 80.8484 201.356 79.9874 201.356 78.9252C201.356 77.863 199.058 77.002 196.223 77.002C193.387 77.002 191.089 77.863 191.089 78.9252C191.089 79.9874 193.387 80.8484 196.223 80.8484Z" fill="#3F3D56"/>
<path d="M196.544 99.4395C196.08 99.4395 195.621 99.3482 195.193 99.171C194.765 98.9939 194.376 98.7341 194.048 98.4067C193.72 98.0793 193.46 97.6906 193.283 97.2628C193.105 96.835 193.014 96.3765 193.014 95.9135V87.2589H200.073V95.9135C200.073 96.3765 199.982 96.835 199.804 97.2628C199.627 97.6906 199.367 98.0793 199.039 98.4067C198.712 98.7341 198.322 98.9939 197.894 99.171C197.466 99.3482 197.007 99.4395 196.544 99.4395V99.4395Z" fill="#FF6584"/>
<path d="M195.794 0C196.164 0.766834 196.524 1.54196 196.862 2.33294C200.844 11.6117 202.187 21.8082 200.743 31.8003C200.021 30.753 199.261 29.662 198.489 28.5589C200.143 18.969 199.213 9.11217 195.794 0V0Z" fill="#3F3D56"/>
<path d="M190.019 7.05176C190.389 7.8186 190.748 8.59372 191.086 9.3847C195.069 18.6634 196.412 28.8599 194.968 38.8521C194.245 37.8048 193.486 36.7138 192.714 35.6107C194.368 26.0208 193.438 16.1639 190.019 7.05176V7.05176Z" fill="#3F3D56"/>
<path d="M172.212 33.3055L173.026 22.9689L173.84 12.6322C173.884 12.074 174.074 11.5373 174.391 11.0759C174.709 10.6145 175.142 10.2447 175.648 10.0036C176.154 9.7626 176.714 9.6588 177.273 9.70269C177.831 9.74658 178.369 9.93661 178.83 10.2537L187.385 16.1259L193.631 20.414C194.03 19.9471 194.526 19.5721 195.084 19.315C195.642 19.0579 196.25 18.9248 196.865 18.9248C197.479 18.9248 198.087 19.0579 198.645 19.315C199.203 19.5721 199.699 19.9471 200.098 20.414L206.345 16.1259L214.899 10.2537C215.361 9.93661 215.898 9.74658 216.457 9.70269C217.015 9.6588 217.576 9.7626 218.081 10.0036C218.587 10.2447 219.021 10.6145 219.338 11.0759C219.655 11.5373 219.846 12.074 219.889 12.6322L220.703 22.9689L221.517 33.3055C221.561 33.8636 221.457 34.4235 221.215 34.9288C220.974 35.434 220.604 35.8669 220.142 36.184C219.68 36.5011 219.143 36.6911 218.584 36.735C218.026 36.7789 217.465 36.6751 216.959 36.434L207.592 31.9696L199.895 28.3014C199.499 28.7022 199.027 29.0206 198.507 29.2378C197.987 29.4551 197.428 29.567 196.865 29.567C196.301 29.567 195.743 29.4551 195.222 29.2378C194.702 29.0206 194.23 28.7022 193.834 28.3014L186.137 31.9696L176.77 36.4341C176.264 36.6751 175.704 36.7789 175.145 36.735C174.586 36.6912 174.049 36.5011 173.587 36.1841C173.125 35.867 172.755 35.434 172.514 34.9288C172.272 34.4235 172.169 33.8636 172.212 33.3055V33.3055Z" fill="#17CA7F"/>
<path d="M204.565 74.4375C204.565 75.4997 205.427 74.4375 206.49 74.4375C207.554 74.4375 208.416 75.4997 208.416 74.4375C208.414 73.9282 208.211 73.44 207.85 73.0802C207.489 72.7204 207 72.5183 206.49 72.5183C205.98 72.5183 205.491 72.7204 205.13 73.0802C204.77 73.44 204.566 73.9282 204.565 74.4375V74.4375Z" fill="#E6E6E6"/>
<path d="M187.88 74.4375C187.88 75.4997 187.018 74.4375 185.955 74.4375C184.892 74.4375 184.03 75.4997 184.03 74.4375C184.031 73.9282 184.234 73.44 184.595 73.0802C184.956 72.7204 185.445 72.5183 185.955 72.5183C186.465 72.5183 186.954 72.7204 187.315 73.0802C187.676 73.44 187.879 73.9282 187.88 74.4375V74.4375Z" fill="#E6E6E6"/>
<path d="M401.472 219.648V207.423H340.286V208.187V219.648V318.211V330.436H352.523H401.472V318.211H352.523V219.648H401.472Z" fill="#3F3D56"/>
<path d="M431.3 207.423V330.436H492.486V207.423H431.3ZM480.249 318.211H443.537V219.648H480.249V318.211Z" fill="#17CA7F"/>
<path d="M261.509 318.211V208.188H249.272V318.211V330.436H261.509H310.458V318.211H261.509Z" fill="#17CA7F"/>
<path d="M221.738 219.648V207.423H160.552V208.187V219.648V262.435V274.66V318.211V330.436H172.789H221.738V318.211H172.789V274.66H221.738V262.435H172.789V219.648H221.738Z" fill="#3F3D56"/>
<path d="M700.519 219.648V207.423H639.333V208.187V219.648V262.435V274.66V318.211V330.436H651.57H700.519V318.211H651.57V274.66H700.519V262.435H651.57V219.648H700.519Z" fill="#17CA7F"/>
<path d="M119.252 208.187V309.223L86.9861 276.991L86.9126 277.065L86.8442 276.997L53.8593 309.949V207.805H41.6219V330.054H53.8593V327.237L86.9185 294.211L119.252 326.512V330.436H131.489V208.187H119.252Z" fill="#3F3D56"/>
<path d="M598.797 208.187V211.004L565.738 244.029L533.404 211.729V207.805H521.167V330.054H533.404V229.017L565.67 261.25L565.744 261.176L565.812 261.244L598.797 228.292V330.436H611.034V208.187H598.797Z" fill="#3F3D56"/>
<path d="M279.646 132.88C283.794 132.88 287.157 129.521 287.157 125.376C287.157 121.232 283.794 117.873 279.646 117.873C275.497 117.873 272.135 121.232 272.135 125.376C272.135 129.521 275.497 132.88 279.646 132.88Z" fill="#17CA7F"/>
<path d="M94.3701 216.253C98.5184 216.253 101.881 212.894 101.881 208.75C101.881 204.606 98.5184 201.246 94.3701 201.246C90.2218 201.246 86.8589 204.606 86.8589 208.75C86.8589 212.894 90.2218 216.253 94.3701 216.253Z" fill="#17CA7F"/>
<path d="M242.924 383C247.073 383 250.435 379.64 250.435 375.496C250.435 371.352 247.073 367.993 242.924 367.993C238.776 367.993 235.413 371.352 235.413 375.496C235.413 379.64 238.776 383 242.924 383Z" fill="#17CA7F"/>
<path d="M431.538 155.391C435.687 155.391 439.049 152.031 439.049 147.887C439.049 143.743 435.687 140.384 431.538 140.384C427.39 140.384 424.027 143.743 424.027 147.887C424.027 152.031 427.39 155.391 431.538 155.391Z" fill="#17CA7F"/>
<path d="M652.701 376.33C656.849 376.33 660.212 372.971 660.212 368.827C660.212 364.682 656.849 361.323 652.701 361.323C648.552 361.323 645.189 364.682 645.189 368.827C645.189 372.971 648.552 376.33 652.701 376.33Z" fill="#17CA7F"/>
<path d="M660.212 179.569C664.36 179.569 667.723 176.209 667.723 172.065C667.723 167.921 664.36 164.562 660.212 164.562C656.063 164.562 652.7 167.921 652.7 172.065C652.7 176.209 656.063 179.569 660.212 179.569Z" fill="#17CA7F"/>
<path d="M565.07 314.634C569.219 314.634 572.581 311.274 572.581 307.13C572.581 302.986 569.219 299.627 565.07 299.627C560.922 299.627 557.559 302.986 557.559 307.13C557.559 311.274 560.922 314.634 565.07 314.634Z" fill="#17CA7F"/>
</svg>
